<?xml version="1.0" encoding="utf-8"?>
<!-- Generator: Adobe Illustrator 24.1.2, SVG Export Plug-In . SVG Version: 6.00 Build 0)  -->
<svg version="1.1" xmlns="http://www.w3.org/2000/svg" xmlns:xlink="http://www.w3.org/1999/xlink" x="0px" y="0px"
	 viewBox="0 0 500 500" style="enable-background:new 0 0 500 500;" xml:space="preserve">
<style type="text/css">
	.st0{fill:#92E3A9;}
	.st1{opacity:0.7;fill:#FFFFFF;}
	.st2{opacity:0.2;}
	.st3{fill:#92E3A9;stroke:#263238;stroke-linecap:round;stroke-linejoin:round;stroke-miterlimit:10;}
	.st4{fill:#FFFFFF;stroke:#263238;stroke-linecap:round;stroke-linejoin:round;stroke-miterlimit:10;}
	.st5{fill:#707070;stroke:#263238;stroke-linecap:round;stroke-linejoin:round;stroke-miterlimit:10;}
	.st6{fill:#263238;stroke:#263238;stroke-linecap:round;stroke-linejoin:round;stroke-miterlimit:10;}
	.st7{fill:#707070;}
	.st8{fill:#263238;}
	.st9{fill:#FFFFFF;stroke:#263238;stroke-miterlimit:10;}
	.st10{fill:none;stroke:#263238;stroke-miterlimit:10;}
	.st11{fill:#92E3A9;stroke:#263238;stroke-miterlimit:10;}
	.st12{fill:#E3E3E3;stroke:#263238;stroke-miterlimit:10;}
	.st13{fill:#B2B2B2;}
	.st14{fill:#263238;stroke:#263238;stroke-miterlimit:10;}
</style>
<g id="Background_Simple">
</g>
<g id="Graphics">
</g>
<g id="Arrows">
</g>
<g id="Device_2">
</g>
<g id="Device_1">
</g>
<g id="Mug">
</g>
<g id="Right_Hand">
</g>
<g id="Left_Hand">
	<g>
		<g>
			<path class="st0" d="M467.62,266.35c-10.69,39.89-36.08,84.39-76.25,100.69c-60.69,24.64-63.33,75.71-175.67,81.75
				c-17.52,0.94-33.88,0.03-49.07-2.46c-8.17-1.34-15.99-3.15-23.47-5.39C75.25,420.73,35.57,365.72,26.9,305.02
				C15.49,225.18,67.78,181.6,102,155.74c34.22-25.86,69.75-116.78,180.14-123.59c16.83-1.03,33.79-0.34,50.43,2.5
				c37.98,6.48,77.75,25.04,102.72,55.34c1.87,2.28,3.68,4.62,5.42,7.01C474.74,143.86,482.2,211.96,467.62,266.35z"/>
			<path class="st1" d="M467.62,266.35c-10.69,39.89-36.08,84.39-76.25,100.69c-60.69,24.64-63.33,75.71-175.67,81.75
				c-17.52,0.94-33.88,0.03-49.07-2.46c-8.17-1.34-15.99-3.15-23.47-5.39C75.25,420.73,35.57,365.72,26.9,305.02
				C15.49,225.18,67.78,181.6,102,155.74c34.22-25.86,69.75-116.78,180.14-123.59c16.83-1.03,33.79-0.34,50.43,2.5
				c37.98,6.48,77.75,25.04,102.72,55.34c1.87,2.28,3.68,4.62,5.42,7.01C474.74,143.86,482.2,211.96,467.62,266.35z"/>
		</g>
		<g class="st2">
			<path d="M230.76,327.44c-37.25-20.81-62.5-60.63-62.5-106.24c0-67.05,54.55-121.61,121.61-121.61c8.37,0,16.54,0.87,24.45,2.49
				l-3.1,10.4l34.56-8.22l-24.4-25.81l-2.96,9.93c-9.21-1.98-18.75-3.03-28.54-3.03C214.95,85.34,154,146.28,154,221.19
				c0,52.48,29.91,98.09,73.57,120.71l-8.6-14.24L230.76,327.44z"/>
			<path d="M339.99,94.93l10.67,11.29l-13.11,3.12c43.41,18.58,73.91,61.72,73.91,111.86c0,67.05-54.55,121.61-121.61,121.61
				c-12.24,0-24.06-1.83-35.21-5.21l4.22-7.65l-35.51,0.69l18.35,30.41l5.91-10.72c13.3,4.36,27.49,6.73,42.23,6.73
				c74.91,0,135.86-60.95,135.86-135.86C425.71,163.98,390.16,114.92,339.99,94.93z"/>
		</g>
		<g>
			<path class="st3" d="M450.46,72.92l-22.9-4.37l-0.04,0.08c-1.14,2.31-3.01,3.6-4.73,3.27l-0.99-0.19
				c-1.73-0.33-2.99-2.21-3.2-4.78l-0.01-0.09l-22.9-4.37c-6.38-1.22-12.53,2.97-13.75,9.34l-29.7,150.71
				c-0.7,3.66,1.7,7.19,5.36,7.89l64.61,12.33c3.66,0.7,7.19-1.7,7.89-5.36l29.7-150.71C461.02,80.29,456.83,74.14,450.46,72.92z"/>
			<path class="st4" d="M459.16,90.03l0.64-3.36c1.22-6.38-2.97-12.53-9.34-13.75l-22.9-4.37l-0.04,0.08
				c-1.14,2.31-3.01,3.6-4.73,3.27l-0.99-0.19c-1.73-0.33-2.99-2.21-3.2-4.78l-0.01-0.09l-22.9-4.37
				c-6.38-1.22-12.53,2.97-13.75,9.34l-0.64,3.36L459.16,90.03z"/>
			<g>
				<g>
					<path class="st5" d="M454.14,138.29l2.79-14.63l-1.32-0.25l8.33-38.69c1.22-6.38-2.97-12.53-9.34-13.75l-62.03-11.84
						c-6.38-1.22-12.53,2.97-13.75,9.34l-30.53,155.06c-1.22,6.38,2.97,12.53,9.34,13.75l62.03,11.84
						c6.38,1.22,12.53-2.97,13.75-9.34l17.04-89.27l1.32,0.25l1.65-8.65l-1.32-0.25l0.73-3.82L454.14,138.29z M431.34,230.85
						c-1.22,6.38-7.37,10.56-13.75,9.34l-54.77-10.45c-6.38-1.22-10.56-7.37-9.34-13.75l28.46-144.18
						c1.22-6.38,7.37-10.56,13.75-9.34l22.9,4.37l0.01,0.09c0.21,2.57,1.47,4.45,3.2,4.78l0.99,0.19c1.73,0.33,3.59-0.96,4.73-3.27
						l0.04-0.08l22.9,4.37c6.38,1.22,10.56,7.37,9.34,13.75L431.34,230.85z"/>
					<path class="st6" d="M452.26,72.18l-57.98-11.06c-6.76-1.29-13.28,3.14-14.57,9.9l-29.66,150.51
						c-1.29,6.76,3.14,13.28,9.9,14.57l57.98,11.06c6.76,1.29,13.28-3.14,14.57-9.9l29.66-150.51
						C463.45,79.99,459.02,73.47,452.26,72.18z M431.34,230.85c-1.22,6.38-7.37,10.56-13.75,9.34l-54.77-10.45
						c-6.38-1.22-10.56-7.37-9.34-13.75l28.46-144.18c1.22-6.38,7.37-10.56,13.75-9.34l22.9,4.37l0.01,0.09
						c0.21,2.57,1.47,4.45,3.2,4.78l0.99,0.19c1.73,0.33,3.59-0.96,4.73-3.27l0.04-0.08l22.9,4.37c6.38,1.22,10.56,7.37,9.34,13.75
						L431.34,230.85z"/>
				</g>
				<path class="st7" d="M423.81,68.41c0.11-0.6-0.28-1.18-0.88-1.29c-0.6-0.11-1.18,0.28-1.29,0.88c-0.11,0.6,0.28,1.18,0.88,1.29
					C423.12,69.4,423.7,69.01,423.81,68.41z"/>
			</g>
			<g>
				<g>
					<g>
						<path class="st8" d="M390.16,66.29c-0.21,1.1-1.52,1.26-1.68,2.09l-0.01,0.06l1.2,0.23l-0.07,0.37l-1.6-0.3l0.06-0.31
							c0.22-1.17,1.5-1.17,1.7-2.19c0.07-0.37-0.02-0.6-0.32-0.65c-0.3-0.06-0.47,0.13-0.53,0.45l-0.06,0.32l-0.38-0.07l0.06-0.3
							c0.11-0.56,0.43-0.88,0.99-0.77C390.08,65.32,390.27,65.74,390.16,66.29z"/>
						<path class="st8" d="M392.15,66.67l-0.02,0.09c-0.07,0.37-0.27,0.61-0.58,0.66c0.28,0.17,0.37,0.47,0.3,0.84l-0.05,0.28
							c-0.11,0.56-0.44,0.87-1,0.76c-0.56-0.11-0.75-0.52-0.64-1.08l0.05-0.25l0.38,0.07l-0.05,0.28c-0.06,0.33,0.04,0.55,0.33,0.61
							c0.3,0.06,0.46-0.11,0.53-0.48l0.05-0.28c0.07-0.36-0.05-0.56-0.35-0.63l-0.22-0.04l0.07-0.36l0.24,0.05
							c0.27,0.04,0.47-0.1,0.53-0.42l0.03-0.17c0.07-0.37-0.02-0.59-0.32-0.65c-0.29-0.06-0.46,0.12-0.53,0.45l-0.04,0.19
							l-0.38-0.07l0.03-0.17c0.11-0.56,0.43-0.87,0.99-0.76C392.07,65.7,392.26,66.11,392.15,66.67z"/>
						<path class="st8" d="M392.89,67.09l-0.1,0.5l-0.39-0.07l0.1-0.5L392.89,67.09z M392.51,69.07l-0.1,0.5l-0.39-0.07l0.1-0.5
							L392.51,69.07z"/>
						<path class="st8" d="M393.64,67.58c0.15-0.18,0.35-0.25,0.6-0.2c0.47,0.09,0.61,0.47,0.51,0.99l-0.14,0.71
							c-0.11,0.56-0.44,0.87-1,0.76c-0.56-0.11-0.75-0.52-0.64-1.08l0.05-0.24l0.38,0.07l-0.05,0.27c-0.06,0.33,0.04,0.55,0.33,0.61
							c0.29,0.06,0.46-0.12,0.53-0.44l0.13-0.71c0.06-0.33-0.03-0.55-0.33-0.61c-0.22-0.04-0.4,0.05-0.49,0.31l-0.02,0.08
							l-0.38-0.07l0.48-2l1.43,0.27l-0.07,0.36l-1.07-0.2L393.64,67.58z"/>
						<path class="st8" d="M397,67.59l-0.01,0.07l-0.38-0.07l0.02-0.09c0.06-0.33-0.04-0.55-0.33-0.6c-0.31-0.06-0.48,0.11-0.55,0.5
							l-0.16,0.82c0.15-0.23,0.37-0.33,0.66-0.28c0.47,0.09,0.61,0.47,0.51,0.99l-0.11,0.55c-0.11,0.56-0.45,0.87-1.01,0.76
							c-0.56-0.11-0.77-0.52-0.66-1.08l0.35-1.86c0.11-0.58,0.44-0.89,1.02-0.78C396.91,66.63,397.11,67.03,397,67.59z
							 M395.49,68.71l-0.1,0.55c-0.06,0.33,0.03,0.55,0.33,0.61c0.29,0.06,0.47-0.12,0.53-0.44l0.1-0.55
							c0.06-0.33-0.04-0.55-0.33-0.61C395.72,68.21,395.55,68.38,395.49,68.71z"/>
					</g>
					<g>
						
							<rect x="435.41" y="75.2" transform="matrix(0.9823 0.1875 -0.1875 0.9823 22.078 -80.3817)" class="st8" width="1.05" height="2.61"/>
						
							<rect x="436.83" y="74.95" transform="matrix(0.9823 0.1874 -0.1874 0.9823 22.0891 -80.6087)" class="st8" width="1.05" height="3.14"/>
						
							<rect x="438.23" y="74.84" transform="matrix(0.9823 0.1874 -0.1874 0.9823 22.1288 -80.8706)" class="st8" width="1.05" height="3.51"/>
						
							<rect x="439.66" y="74.46" transform="matrix(0.9823 0.1874 -0.1874 0.9823 22.1433 -81.1388)" class="st8" width="1.05" height="4.16"/>
						<g>
							<g>
								<path class="st8" d="M453.04,81.03l-6.16-1.18l0.72-3.77l6.16,1.18L453.04,81.03z M447.28,79.58l5.48,1.05l0.59-3.08
									l-5.48-1.05L447.28,79.58z"/>
							</g>
							<g>
								
									<rect x="448.06" y="77.26" transform="matrix(0.9823 0.1874 -0.1874 0.9823 22.6749 -82.9039)" class="st8" width="3.31" height="2.38"/>
							</g>
							<g>
								
									<rect x="453.18" y="78.73" transform="matrix(0.9823 0.1874 -0.1874 0.9823 22.8723 -83.5901)" class="st8" width="0.79" height="0.9"/>
							</g>
						</g>
						<g>
							<path class="st8" d="M444.77,78.61c-0.04-0.01-0.08-0.03-0.11-0.05c-1.11-0.99-2.07-0.45-2.11-0.43
								c-0.11,0.06-0.25,0.03-0.32-0.08c-0.07-0.11-0.03-0.25,0.08-0.32c0.05-0.03,1.29-0.74,2.66,0.48
								c0.1,0.09,0.11,0.23,0.02,0.33C444.93,78.6,444.85,78.62,444.77,78.61z"/>
						</g>
						<g>
							<path class="st8" d="M445.38,77.92c-0.04-0.01-0.08-0.03-0.11-0.05c-1.61-1.42-3.03-0.61-3.04-0.61
								c-0.11,0.07-0.25,0.03-0.32-0.08c-0.07-0.11-0.03-0.26,0.08-0.32c0.02-0.01,1.73-0.99,3.59,0.66
								c0.1,0.09,0.11,0.23,0.02,0.33C445.54,77.91,445.46,77.94,445.38,77.92z"/>
						</g>
						<g>
							<path class="st8" d="M445.97,77.11c-0.04-0.01-0.08-0.03-0.11-0.05c-2.04-1.8-3.81-0.81-3.88-0.77
								c-0.11,0.06-0.26,0.03-0.32-0.08c-0.07-0.11-0.03-0.25,0.08-0.32c0.02-0.01,2.13-1.22,4.43,0.82
								c0.1,0.09,0.11,0.23,0.02,0.33C446.14,77.1,446.05,77.12,445.97,77.11z"/>
						</g>
						<g>
							<path class="st8" d="M444,78.86c-0.06,0.32-0.37,0.53-0.69,0.47c-0.32-0.06-0.53-0.37-0.47-0.69
								c0.06-0.32,0.37-0.53,0.69-0.47C443.85,78.23,444.06,78.54,444,78.86z"/>
						</g>
					</g>
				</g>
			</g>
		</g>
		<path class="st9" d="M428.21,187.68l-54.27-10.36c-2.9-0.55-4.8-3.35-4.24-6.24l8.69-45.55c0.55-2.9,3.35-4.8,6.24-4.24
			l54.27,10.36c2.9,0.55,4.8,3.35,4.24,6.24l-8.69,45.55C433.91,186.33,431.11,188.23,428.21,187.68z"/>
		<g>
			<path class="st8" d="M388.63,152.49l-0.7-5.34l0.91,0.17l0.49,4.08l1.97-3.62l0.83,0.16l-2.63,4.71l-0.54,2.81l-0.86-0.16
				L388.63,152.49z"/>
			<path class="st8" d="M392.15,149.92c0.23-1.2,0.97-1.86,2.17-1.63c1.21,0.23,1.65,1.12,1.43,2.31l-0.77,4.05
				c-0.23,1.19-0.97,1.86-2.18,1.63c-1.2-0.23-1.64-1.13-1.41-2.31L392.15,149.92z M392.23,154.18c-0.14,0.72,0.09,1.19,0.71,1.31
				c0.64,0.12,1.01-0.24,1.14-0.95l0.79-4.14c0.13-0.71-0.07-1.19-0.71-1.31c-0.63-0.12-1.01,0.25-1.15,0.95L392.23,154.18z"/>
			<path class="st8" d="M396.62,155.01c-0.13,0.71,0.06,1.18,0.7,1.31c0.63,0.12,0.99-0.25,1.12-0.96l1.14-5.99l0.82,0.16
				l-1.13,5.94c-0.23,1.19-0.93,1.88-2.14,1.65c-1.2-0.23-1.59-1.13-1.37-2.31l1.13-5.94l0.86,0.16L396.62,155.01z"/>
			<path class="st8" d="M403.02,150.03c1.23,0.24,1.63,0.96,1.4,2.12l-0.12,0.64c-0.16,0.86-0.57,1.34-1.28,1.43
				c0.68,0.35,0.83,0.98,0.67,1.82l-0.23,1.22c-0.07,0.35-0.12,0.67-0.02,0.97l-0.88-0.17c-0.06-0.24-0.06-0.45,0.04-0.98l0.23-1.23
				c0.17-0.88-0.19-1.24-0.92-1.38l-0.62-0.12l-0.64,3.35l-0.87-0.17l1.5-7.83L403.02,150.03z M402.09,153.68
				c0.69,0.13,1.15-0.01,1.31-0.86l0.14-0.75c0.13-0.71-0.05-1.12-0.7-1.25l-0.85-0.16l-0.55,2.9L402.09,153.68z"/>
			<path class="st8" d="M410.52,153.42l-0.13,0.71l-0.83-0.16l0.14-0.75c0.13-0.7-0.06-1.18-0.7-1.31c-0.63-0.12-1,0.25-1.13,0.96
				l-0.79,4.14c-0.13,0.71,0.08,1.19,0.7,1.31c0.64,0.12,1-0.25,1.13-0.96l0.19-1.02l0.83,0.16l-0.19,0.97
				c-0.23,1.19-0.94,1.86-2.14,1.63c-1.2-0.23-1.61-1.12-1.38-2.31l0.77-4.05c0.23-1.19,0.94-1.86,2.13-1.63
				C410.33,151.34,410.74,152.23,410.52,153.42z"/>
			<path class="st8" d="M411.25,153.56c0.23-1.2,0.97-1.86,2.17-1.63c1.21,0.23,1.66,1.12,1.43,2.31l-0.77,4.05
				c-0.23,1.19-0.97,1.86-2.18,1.63c-1.2-0.23-1.64-1.13-1.41-2.31L411.25,153.56z M411.33,157.82c-0.14,0.72,0.09,1.19,0.71,1.31
				c0.64,0.12,1.01-0.24,1.15-0.95l0.79-4.14c0.13-0.71-0.08-1.19-0.71-1.31c-0.63-0.12-1.01,0.25-1.14,0.95L411.33,157.82z"/>
			<path class="st8" d="M417.87,152.86c1.22,0.23,1.64,1.08,1.41,2.29l-0.75,3.95c-0.23,1.2-0.93,1.83-2.15,1.6l-1.84-0.35l1.5-7.83
				L417.87,152.86z M416.51,159.9c0.63,0.12,1-0.21,1.14-0.93l0.77-4.03c0.14-0.72-0.09-1.17-0.73-1.29l-0.94-0.18l-1.19,6.25
				L416.51,159.9z"/>
			<path class="st8" d="M422.59,157.36l-0.15,0.78l-1.91-0.37l-0.53,2.79l2.35,0.45l-0.15,0.79l-3.22-0.62l1.5-7.83l3.22,0.62
				l-0.15,0.79l-2.35-0.45l-0.51,2.68L422.59,157.36z"/>
		</g>
		<line class="st10" x1="373.8" y1="190.2" x2="424.85" y2="199.94"/>
		<line class="st10" x1="371.9" y1="200.16" x2="422.95" y2="209.9"/>
		<g>
			<line class="st10" x1="456.59" y1="152.67" x2="468.94" y2="150.77"/>
			<line class="st10" x1="454.69" y1="166.92" x2="461.34" y2="168.82"/>
			<line class="st10" x1="450.89" y1="179.27" x2="463.24" y2="187.82"/>
		</g>
		<path class="st8" d="M338.2,176.39c1.34,0,2.42-1.08,2.42-2.42v-19.99c0-1.34-1.08-2.42-2.42-2.42h-0.11v-7.82
			c0-5.33-4.32-9.65-9.65-9.65h-211c-5.33,0-9.65,4.32-9.65,9.65v145.77c0,5.33,4.32,9.65,9.65,9.65h211c5.33,0,9.65-4.32,9.65-9.65
			v-52.3h0.11c1.34,0,2.42-1.08,2.42-2.42V214.8c0-1.34-1.08-2.42-2.42-2.42h-0.11v-2.53h0.11c1.34,0,2.42-1.08,2.42-2.42v-19.99
			c0-1.34-1.08-2.42-2.42-2.42h-0.11v-8.63H338.2z"/>
		<g>
			<rect x="116.41" y="140.52" class="st11" width="213.09" height="152.2"/>
		</g>
		<rect x="163.72" y="160.09" class="st12" width="119.17" height="95.71"/>
		<rect x="172.92" y="191.7" class="st9" width="100.56" height="11.35"/>
		<rect x="172.92" y="209.7" class="st9" width="100.56" height="11.35"/>
		<g>
			<rect x="227.92" y="235.3" class="st9" width="9.49" height="11.35"/>
			<rect x="215.83" y="235.3" class="st9" width="9.49" height="11.35"/>
			<rect x="203.75" y="235.3" class="st9" width="9.49" height="11.35"/>
			<rect x="192.1" y="235.3" class="st9" width="9.06" height="11.35"/>
			<rect x="240" y="235.3" class="st9" width="9.84" height="11.35"/>
		</g>
		<path class="st8" d="M228.1,173.08v-2.18c0-3.54-2.88-6.41-6.41-6.41c-3.54,0-6.41,2.88-6.41,6.41v2.18h-0.12v12.06h13.07v-12.06
			H228.1z M222.07,179.71v2.19h-1.24v-2.19c-0.6-0.25-1.03-0.84-1.03-1.53c0-0.91,0.74-1.65,1.65-1.65c0.91,0,1.65,0.74,1.65,1.65
			C223.1,178.87,222.68,179.46,222.07,179.71z M225.66,173.08h-7.95v-2.18c0-2.19,1.78-3.97,3.97-3.97s3.97,1.78,3.97,3.97V173.08z"
			/>
		<g>
			<path class="st13" d="M208.54,214.81l0.91,1l-0.44,0.33l-0.68-1.19l-0.67,1.19l-0.44-0.33l0.9-1l-1.33-0.27l0.16-0.52l1.25,0.55
				l-0.15-1.35h0.55l-0.15,1.35l1.25-0.54l0.16,0.52L208.54,214.81z"/>
			<path class="st13" d="M211.92,214.81l0.91,1l-0.44,0.33l-0.68-1.19l-0.67,1.19l-0.44-0.33l0.9-1l-1.33-0.27l0.16-0.52l1.25,0.55
				l-0.15-1.35h0.55l-0.15,1.35l1.25-0.54l0.16,0.52L211.92,214.81z"/>
			<path class="st13" d="M215.3,214.81l0.91,1l-0.44,0.33l-0.68-1.19l-0.67,1.19l-0.44-0.33l0.9-1l-1.33-0.27l0.16-0.52l1.25,0.55
				l-0.15-1.35h0.55l-0.15,1.35l1.25-0.54l0.16,0.52L215.3,214.81z"/>
			<path class="st13" d="M218.68,214.81l0.91,1l-0.44,0.33l-0.68-1.19l-0.67,1.19l-0.44-0.33l0.9-1l-1.33-0.27l0.16-0.52l1.25,0.55
				l-0.15-1.35h0.55l-0.15,1.35l1.25-0.54l0.16,0.52L218.68,214.81z"/>
			<path class="st13" d="M222.05,214.81l0.91,1l-0.44,0.33l-0.68-1.19l-0.67,1.19l-0.44-0.33l0.9-1l-1.33-0.27l0.16-0.52l1.25,0.55
				l-0.15-1.35h0.55l-0.15,1.35l1.25-0.54l0.16,0.52L222.05,214.81z"/>
			<path class="st13" d="M225.43,214.81l0.91,1l-0.44,0.33l-0.68-1.19l-0.67,1.19l-0.44-0.33l0.9-1l-1.33-0.27l0.16-0.52l1.25,0.55
				l-0.15-1.35h0.55l-0.15,1.35l1.25-0.54l0.16,0.52L225.43,214.81z"/>
			<path class="st13" d="M228.81,214.81l0.91,1l-0.44,0.33l-0.68-1.19l-0.67,1.19l-0.44-0.33l0.9-1l-1.33-0.27l0.16-0.52l1.25,0.55
				l-0.15-1.35h0.55l-0.15,1.35l1.25-0.54l0.16,0.52L228.81,214.81z"/>
			<path class="st13" d="M232.18,214.81l0.91,1l-0.44,0.33l-0.68-1.19l-0.67,1.19l-0.44-0.33l0.9-1l-1.33-0.27l0.16-0.52l1.25,0.55
				l-0.15-1.35h0.55l-0.15,1.35l1.25-0.54l0.16,0.52L232.18,214.81z"/>
		</g>
		<g>
			<path class="st14" d="M380.57,363.93c0,0-1.04,0.06-2.9,0.26c-1.77-6-7.06-23.74-10.54-32.91c-4.23-11.14-9.99-26.89-13.83-33.42
				c-3.84-6.53-3.46-10.37-10.76-16.52s-13.83-3.46-13.83-3.46s-1.15-4.61-8.45-6.91c-7.3-2.3-17.28,2.3-17.28,2.3
				s-1.54-2.69-8.83-1.92c-7.3,0.77-9.99,7.3-9.99,7.3s-14.98-29.96-20.74-32.26c-5.76-2.3-11.52,3.46-9.22,8.83
				c2.3,5.38,19.59,35.34,21.89,42.25c2.3,6.91,7.3,18.44,7.3,18.44s-16.52-11.91-21.51-13.06c-4.99-1.15-12.29-1.92-16.52,2.69
				c-4.23,4.61,5.76,5.76,13.83,13.06s21.13,24.2,27.27,34.95c6.15,10.76,19.21,12.68,24.97,18.82c4.06,4.33,9.82,10.36,12.88,13.56
				c-1.93,2.01-2.89,3.34-2.89,3.34l12.68,31.11c0,0,2.69-4.23,13.44-12.68c10.75-8.45,44.17-18.82,44.17-18.82L380.57,363.93z"/>
			<g>
				<g>
					<g>
						<path class="st9" d="M325.94,380.09c0,0-9.22-9.6-14.98-15.75s-18.82-8.07-24.97-18.82c-6.15-10.75-19.21-27.66-27.27-34.95
							c-8.07-7.3-18.05-8.45-13.83-13.06c4.23-4.61,11.52-3.84,16.52-2.69c4.99,1.15,21.51,13.06,21.51,13.06s-4.99-11.52-7.3-18.44
							c-2.3-6.91-19.59-36.87-21.89-42.25c-2.3-5.38,3.46-11.14,9.22-8.83c5.76,2.3,20.74,32.26,20.74,32.26s2.69-6.53,9.99-7.3
							c7.3-0.77,8.83,1.92,8.83,1.92s9.99-4.61,17.28-2.3s8.45,6.91,8.45,6.91s6.53-2.69,13.83,3.46c7.3,6.15,6.91,9.99,10.76,16.52
							c3.84,6.53,9.6,22.28,13.83,33.42c4.23,11.14,11.14,34.95,11.14,34.95l-49.55,26.89L325.94,380.09z"/>
						<line class="st10" x1="283.68" y1="270.62" x2="297.13" y2="290.6"/>
						<line class="st10" x1="302.51" y1="265.25" x2="314.8" y2="284.45"/>
						<line class="st10" x1="328.24" y1="269.86" x2="336.69" y2="284.84"/>
						<line class="st10" x1="288.84" y1="325.06" x2="290.6" y2="330.16"/>
						<line class="st10" x1="282.92" y1="307.88" x2="287.62" y2="321.52"/>
					</g>
					<line class="st10" x1="304.43" y1="295.21" x2="307.5" y2="299.43"/>
					<line class="st10" x1="318.64" y1="290.98" x2="322.09" y2="295.59"/>
					<line class="st10" x1="337.46" y1="288.68" x2="339.76" y2="295.98"/>
				</g>
				<g>
					<path class="st9" d="M320.94,381.25c0,0,8.83-12.29,26.89-18.44c18.05-6.15,32.26-6.91,32.26-6.91l11.14,24.97
						c0,0-33.42,10.37-44.17,18.82c-10.75,8.45-13.44,12.68-13.44,12.68L320.94,381.25z"/>
					<path class="st9" d="M351.29,464.21c0,0-14.6-36.49-18.44-44.17c-3.84-7.68,2.3-11.52,2.3-11.52s8.83-11.91,31.88-21.13
						s24.97-9.6,30.73-3.07c5.76,6.53,43.55,79.96,43.55,79.96"/>
				</g>
			</g>
		</g>
		<g>
			<path class="st14" d="M111.51,425.82c0,0,5.22-11.2,17.66-17.54c12.43-6.34,20.51-9.07,32.41-20.81
				c11.9-11.74,31.51-22.22,39.59-23.66c8.09-1.45,10.77-4.92,7.29-8.89c-3.48-3.97-12.99-4.19-21.46-1.33
				c-8.47,2.86-16.29,6.36-16.29,6.36c4.29-8.44,7.14-18.61,11.36-27.08c3-6.01,7.91-15.93,10.83-21.99
				c1.9-3.95,7.56-10.53,5.04-14.85c-2.53-4.34-8.59-1.45-11.66,2.67c-4.88,6.56-28.75,42.54-28.75,42.54
				c4.53-9.6,9.07-19.2,13.6-28.8c6.89-14.59,10.18-21.55,9.2-19.48c2.01-4.26,5.92-9.96,3.54-14.86
				c-2.42-4.98-9.43-5.49-12.34-0.75c-3.32,5.41-28.69,53.42-28.69,53.42s15.88-41.21,17.91-45.94c2.48-5.78,1.01-10.82-2.64-10.8
				c-5.31,0.04-7.83,5.93-9.91,9.93c0.39-0.56,0.77-1.13,1.16-1.69c-4.97,6.63-8.31,15.33-12.47,22.52
				c-4.86,8.4-9.89,16.71-15.08,24.91c1.02-8.49,4.43-16.45,8.65-23.81c2.55-4.44,13.15-15.35,11.34-20.72
				c-1.56-4.62-13.19,4.06-19.96,13.53c-3.69,5.16-13.35,19.24-16.01,29.14s-21.28,43.63-26.25,53.02
				c-4.97,9.4-10.94,25.99-10.94,25.99L111.51,425.82z"/>
			<path class="st14" d="M125.69,416.76c0,0-9.58-11.72-27.97-16.74c-18.4-5.02-32.63-4.91-32.63-4.91l-9.58,25.61
				c0,0,33.99,8.29,45.25,16.06c11.26,7.77,14.2,11.82,14.2,11.82L125.69,416.76z"/>
			<g>
				<g>
					<path class="st9" d="M110.24,421.38c0,0,5.22-11.2,17.66-17.54c12.43-6.34,20.51-9.07,32.41-20.81
						c11.9-11.74,31.51-22.22,39.59-23.66c8.09-1.45,10.77-4.92,7.29-8.89c-3.48-3.97-12.99-4.19-21.46-1.33s-16.29,6.36-16.29,6.36
						c4.29-8.44,7.14-18.61,11.36-27.08c3-6.01,7.91-15.93,10.83-21.99c1.9-3.95,7.56-10.53,5.04-14.85
						c-2.53-4.34-8.59-1.45-11.66,2.67c-4.88,6.56-28.75,42.54-28.75,42.54c4.53-9.6,9.07-19.2,13.6-28.8
						c6.89-14.59,10.18-21.55,9.2-19.48c2.01-4.26,5.92-9.95,3.54-14.86c-2.42-4.98-9.43-5.49-12.34-0.75
						c-3.32,5.41-28.69,53.42-28.69,53.42s15.88-41.21,17.91-45.94c2.48-5.78,1.01-10.82-2.64-10.8c-5.31,0.04-7.83,5.93-9.91,9.93
						c0.39-0.56,0.77-1.13,1.16-1.69c-4.97,6.63-8.31,15.33-12.47,22.52c-4.86,8.4-9.89,16.71-15.08,24.91
						c1.02-8.49,4.43-16.45,8.65-23.81c2.55-4.44,13.15-15.35,11.34-20.72c-1.56-4.62-13.19,4.06-19.96,13.53
						c-3.69,5.16-13.35,19.24-16.01,29.14c-2.66,9.9-21.28,43.63-26.25,53.02c-4.97,9.4-10.94,25.99-10.94,25.99L110.24,421.38z"/>
					<line class="st10" x1="141.59" y1="326.34" x2="137" y2="335.61"/>
					<line class="st10" x1="156.27" y1="336.81" x2="152.7" y2="341.45"/>
					<line class="st10" x1="169.45" y1="355.51" x2="164.85" y2="362.21"/>
					<line class="st10" x1="145.67" y1="351.11" x2="145.3" y2="355.1"/>
					<line class="st10" x1="134.21" y1="343.84" x2="134.23" y2="347.69"/>
					<line class="st10" x1="117.35" y1="335.81" x2="118.28" y2="342.36"/>
				</g>
				<g>
					<path class="st9" d="M124.43,412.33c0,0-9.58-11.72-27.97-16.74c-18.4-5.02-32.63-4.91-32.63-4.91l-9.58,25.61
						c0,0,33.99,8.29,45.25,16.06c11.26,7.77,14.2,11.82,14.2,11.82L124.43,412.33z"/>
					<path class="st9" d="M109.19,467.7c0,0,2.38-8.01,5.74-15.91c3.36-7.9-3.01-11.36-3.01-11.36s-9.55-11.34-33.12-19.12
						s-25.51-8.04-30.86-1.17c-5.35,6.87-22.56,48.18-22.56,48.18"/>
				</g>
			</g>
		</g>
	</g>
</g>
</svg>
