<svg id="Layer_1" data-name="Layer 1" xmlns="http://www.w3.org/2000/svg" viewBox="0 0 152 152"><defs><style>.cls-1{fill:#004aad;isolation:isolate;}</style></defs><path class="cls-1" d="M121.59,14.74c1.32-1.82,2.59-3.56,4.07-5.58.35,2.06.65,3.79.94,5.51.49,2.9,1,5.8,1.46,8.69.1.56.07.94-.6,1.05l-13.52,2.2a5.07,5.07,0,0,1-.81,0l4-5.59c-.47-.38-.86-.72-1.28-1A67.68,67.68,0,0,0,80.7,7.73,68.62,68.62,0,0,0,9.42,60.26c-9,37,14.9,74.67,52.31,82.65A68.85,68.85,0,0,0,143.24,92c.52-2.14.86-4.34,1.26-6.51C145,83,146.6,81.66,149,82c2.05.31,3.3,2.12,3,4.51a68.76,68.76,0,0,1-6.15,21c-11.86,24.45-31.21,39.36-58.17,43.56a75.92,75.92,0,0,1-27-149.38C82.23-2.71,102.23,1.45,120.4,14,120.76,14.21,121.13,14.44,121.59,14.74Z"/></svg>