<?xml version="1.0" encoding="utf-8"?>
<!-- Generator: Adobe Illustrator 24.1.2, SVG Export Plug-In . SVG Version: 6.00 Build 0)  -->
<svg version="1.1" id="Layer_1" xmlns:serif="http://www.serif.com/"
	 xmlns="http://www.w3.org/2000/svg" xmlns:xlink="http://www.w3.org/1999/xlink" x="0px" y="0px" viewBox="0 0 400 400"
	 style="enable-background:new 0 0 400 400;" xml:space="preserve">
<style type="text/css">
	.st0{fill-rule:evenodd;clip-rule:evenodd;}
</style>
<g id="Icon">
</g>
<g>
	<path class="st0" d="M223.71,158.22c-6.14-2.82-12.79-4.81-19.82-5.81c-6.33-0.9-12.59-0.95-18.66-0.22
		c-1.71,0.2-2.94,1.76-2.73,3.47c0.2,1.71,1.76,2.94,3.47,2.73c5.54-0.66,11.26-0.62,17.04,0.21c6.42,0.92,12.49,2.73,18.1,5.31
		c1.57,0.72,3.42,0.03,4.14-1.54C225.97,160.79,225.28,158.94,223.71,158.22L223.71,158.22z"/>
	<path class="st0" d="M236.75,178.21c-9.08-8.63-20.84-14.62-34.18-16.52c-11.47-1.63-22.65-0.04-32.63,4.09
		c-1.59,0.66-2.35,2.49-1.69,4.08c0.66,1.59,2.49,2.35,4.08,1.69c8.98-3.72,19.05-5.15,29.37-3.68c12,1.71,22.58,7.1,30.75,14.87
		c1.25,1.19,3.23,1.14,4.42-0.11C238.05,181.38,238,179.4,236.75,178.21L236.75,178.21z"/>
	<path class="st0" d="M240.2,197.8c-7.8-14.03-21.84-24.39-38.95-26.83c-14.07-2.01-27.64,1.71-38.37,9.37
		c-1.41,1-1.73,2.96-0.73,4.36c1,1.4,2.96,1.73,4.36,0.73c9.46-6.76,21.44-10.03,33.85-8.27c15.1,2.15,27.49,11.29,34.37,23.68
		c0.84,1.51,2.74,2.05,4.25,1.21C240.49,201.21,241.03,199.3,240.2,197.8L240.2,197.8z"/>
	<path class="st0" d="M237.12,217.76c-2.53-18.93-17.37-34.68-37.2-37.51c-15.56-2.22-30.39,4.06-39.78,15.31
		c-1.1,1.33-0.93,3.3,0.4,4.4c1.32,1.11,3.3,0.93,4.4-0.4c8.05-9.64,20.76-15.03,34.1-13.13c17,2.43,29.71,15.92,31.88,32.15
		c0.23,1.71,1.8,2.91,3.51,2.68C236.14,221.04,237.35,219.47,237.12,217.76L237.12,217.76z"/>
	<path class="st0" d="M226.09,236.38c1.48-4.49,1.69-7.33,1.72-8.17c2.56-18.7-10.49-36.01-29.21-38.68
		c-16.44-2.34-31.83,7.38-37.21,22.43c-0.28,0.77-0.52,1.54-0.74,2.33c-0.46,1.66,0.51,3.38,2.17,3.85
		c1.66,0.46,3.38-0.51,3.85-2.17c0.18-0.65,0.38-1.28,0.61-1.91c4.4-12.31,16.99-20.26,30.44-18.34
		c15.37,2.19,26.07,16.45,23.88,31.81c-0.02,0.15-0.03,0.31-0.03,0.46c0,0-0.04,2.29-1.4,6.43c-0.54,1.64,0.35,3.41,1.99,3.95
		C223.78,238.91,225.55,238.02,226.09,236.38L226.09,236.38z"/>
	<path class="st0" d="M210.97,245.9c6.78-10.8,7.48-17.72,7.55-18.97c1.85-13.6-7.64-26.18-21.24-28.12
		c-12.73-1.82-24.6,6.32-27.73,18.5c-0.46,0.77-1.56,2.52-3.42,4.94c-1.05,1.37-0.79,3.33,0.57,4.38c1.37,1.05,3.33,0.79,4.38-0.57
		c2.56-3.33,3.84-5.57,4.12-6.05c0.14-0.25,0.25-0.52,0.31-0.8c2.21-9.32,11.22-15.58,20.88-14.2
		c10.24,1.46,17.38,10.97,15.92,21.21c-0.02,0.12-0.03,0.24-0.03,0.36c0,0-0.28,5.95-6.6,16c-0.92,1.46-0.47,3.39,0.98,4.31
		C208.12,247.8,210.05,247.36,210.97,245.9z"/>
	<path class="st0" d="M209.23,225.65c1.15-8.49-4.78-16.34-13.28-17.56c-8.17-1.16-15.76,4.22-17.48,12.16
		c-0.43,0.96-2.24,4.7-6.77,10.19c-1.1,1.33-0.91,3.3,0.42,4.4c1.33,1.1,3.3,0.91,4.4-0.42c5.87-7.11,7.71-11.73,7.86-12.11
		c0.07-0.18,0.13-0.36,0.16-0.55c0.95-4.87,5.56-8.19,10.52-7.48c5.13,0.73,8.69,5.48,7.96,10.6c-0.01,0.08-0.02,0.16-0.02,0.24
		c0,0-0.62,6.79-9.32,18.17c-1.05,1.37-0.79,3.33,0.58,4.38c1.37,1.05,3.33,0.78,4.38-0.58
		C208.16,234.66,209.14,226.72,209.23,225.65L209.23,225.65z"/>
	<path class="st0" d="M190.65,223.12c0,0-0.99,5.72-9.33,15.59c-1.11,1.32-0.95,3.29,0.37,4.4c1.32,1.11,3.29,0.95,4.4-0.37
		c9.92-11.74,10.74-18.74,10.74-18.74c0.24-1.71-0.94-3.29-2.65-3.53C192.48,220.23,190.9,221.41,190.65,223.12L190.65,223.12z"/>
</g>
</svg>
