<svg id="Layer_1" data-name="Layer 1" xmlns="http://www.w3.org/2000/svg" viewBox="0 0 65.88 90"><defs><style>.cls-1{fill:#4e342e;}.cls-1,.cls-2,.cls-3,.cls-4,.cls-5{isolation:isolate;}.cls-2{fill:#ff1744;}.cls-3{fill:#c16e14;}.cls-4{fill:#212121;}.cls-5{fill:#a0530e;}</style></defs><path class="cls-1" d="M62.91,43.41c-3.24,3.26-8.36,8.27-13.34,13.08a18.34,18.34,0,0,0-6.94-1.91h-.17V49.12a21.74,21.74,0,0,0,6.79-7V24.34L41.09,13.68,16.63,27.33s0,14.59,0,14.78a23.12,23.12,0,0,0,6.75,6.8v5.67h-.12a18.24,18.24,0,0,0-6.72,1.8l-13.36-10S2.36,24.91,9.73,13,24.87,0,38.28,0c1.44,2.11,2.79,4.12,2.79,4.12s6.41-.19,10.73,3.44S63.1,21.27,62.91,43.41Z"/><path class="cls-2" d="M65.88,88.18V90H0V88.18S.07,73.34,3.62,68c2.59-3.86,7.23-9,12.92-11.66a18.24,18.24,0,0,1,6.72-1.8h.12A21.23,21.23,0,0,0,26.69,64a8.42,8.42,0,0,0,5,3.77,5.94,5.94,0,0,0,1.42.16c7.27,0,9.33-10.91,9.33-13.34h.17a18.34,18.34,0,0,1,6.94,1.91c5.59,2.7,10.14,7.74,12.7,11.55C65.82,73.34,65.88,88.18,65.88,88.18Z"/><path class="cls-3" d="M42.46,49.12v5.46c0,2.43-2.06,13.34-9.33,13.34a5.94,5.94,0,0,1-1.42-.16,8.42,8.42,0,0,1-5-3.77,21.23,21.23,0,0,1-3.31-9.41V48.91l0,0v5.45s5,8.28,9.58,8.28,9.42-8.34,9.42-8.34V49.14Z"/><path class="cls-3" d="M41.09,13.68,16.63,27.33s0,14.59,0,14.78a23.12,23.12,0,0,0,6.75,6.8l0,0a17.62,17.62,0,0,0,9.71,3,17,17,0,0,0,9.29-2.75l0,0a21.74,21.74,0,0,0,6.79-7V24.34ZM24.77,32.59a2.73,2.73,0,1,1,2.73-2.72A2.73,2.73,0,0,1,24.77,32.59Zm16.36,0a2.73,2.73,0,1,1,2.74-2.72A2.72,2.72,0,0,1,41.13,32.59Z"/><path class="cls-4" d="M27.5,29.87a2.74,2.74,0,1,1-2.73-2.73A2.72,2.72,0,0,1,27.5,29.87Z"/><path class="cls-4" d="M43.87,29.87a2.74,2.74,0,1,1-2.74-2.73A2.73,2.73,0,0,1,43.87,29.87Z"/><path class="cls-5" d="M42.42,49.14v5.18S37.61,62.66,33,62.66s-9.58-8.28-9.58-8.28V48.93a17.62,17.62,0,0,0,9.71,3A17,17,0,0,0,42.42,49.14Z"/></svg>