<?xml version="1.0" encoding="utf-8"?>
<!-- Generator: Adobe Illustrator 24.1.2, SVG Export Plug-In . SVG Version: 6.00 Build 0)  -->
<svg version="1.1" id="Layer_1" xmlns="http://www.w3.org/2000/svg" xmlns:xlink="http://www.w3.org/1999/xlink" x="0px" y="0px"
	 viewBox="0 0 400 400" style="enable-background:new 0 0 400 400;" xml:space="preserve">
<g>
	<g>
		<path d="M199.54,312.29c-39.93,0-83.67-18.1-130.03-53.79c-34.22-26.35-56.58-52.3-57.52-53.39l-3.34-3.9l3.33-3.9
			c0.93-1.08,23.06-26.84,57.18-52.97c31.76-24.34,80.16-53.35,130.37-53.35c50.2,0,98.84,29,130.81,53.34
			c34.33,26.13,56.68,51.88,57.62,52.96l3.39,3.92l-3.39,3.92c-0.94,1.09-23.52,27.04-57.96,53.38
			C283.35,294.19,239.46,312.29,199.54,312.29z M24.61,201.2c17.31,18.81,95.84,99.08,174.92,99.08
			c79.07,0,158.27-80.23,175.78-99.08c-17.41-18.75-95.94-98.22-175.78-98.22C119.68,102.98,41.82,182.49,24.61,201.2z"/>
	</g>
	<g>
		<path d="M144.2,217.25c-2.83,0-5.34-2.01-5.89-4.89c-0.72-3.81-1.09-7.72-1.09-11.62c0-34.29,27.9-62.19,62.19-62.19
			c3.58,0,7.18,0.31,10.68,0.92c3.27,0.57,5.45,3.67,4.89,6.94c-0.57,3.27-3.67,5.46-6.94,4.89c-2.83-0.49-5.74-0.74-8.64-0.74
			c-27.67,0-50.19,22.52-50.19,50.19c0,3.16,0.29,6.32,0.88,9.39c0.62,3.26-1.52,6.39-4.78,7.01
			C144.95,217.22,144.57,217.25,144.2,217.25z"/>
	</g>
	<g>
		<path d="M199.42,262.93c-16.28,0-31.67-6.25-43.34-17.59c-2.38-2.31-2.43-6.11-0.12-8.48s6.11-2.43,8.48-0.12
			c9.42,9.15,21.84,14.19,34.98,14.19c27.67,0,50.19-22.52,50.19-50.19c0-13.27-5.13-25.78-14.44-35.23
			c-2.33-2.36-2.3-6.16,0.06-8.48c2.36-2.33,6.16-2.3,8.49,0.06c11.54,11.71,17.89,27.21,17.89,43.65
			C261.61,235.04,233.71,262.93,199.42,262.93z"/>
	</g>
	<g>
		<path d="M62.63,342.91c-1.54,0-3.07-0.59-4.24-1.76c-2.34-2.34-2.34-6.14,0-8.48L332.2,58.85c2.34-2.34,6.14-2.34,8.48,0
			c2.34,2.34,2.34,6.14,0,8.49L66.87,341.15C65.7,342.32,64.17,342.91,62.63,342.91z"/>
	</g>
</g>
</svg>
