<?xml version="1.0" encoding="utf-8"?>
<!-- Generator: Adobe Illustrator 24.1.2, SVG Export Plug-In . SVG Version: 6.00 Build 0)  -->
<svg version="1.1" id="Layer_1" xmlns="http://www.w3.org/2000/svg" xmlns:xlink="http://www.w3.org/1999/xlink" x="0px" y="0px"
	 viewBox="0 0 38.2 24" style="enable-background:new 0 0 38.2 24;" xml:space="preserve">
<style type="text/css">
	.st0{fill:#004AAD;}
</style>
<g>
	<g>
		<path class="st0" d="M38,0.3c-0.2-0.3-0.6-0.4-0.9-0.2l-6.2,3.9c-1.4-1.3-5.3-3.9-12.7-3.9c-9.8,0-16.3,8-17.9,11.9l-0.1,0.2
			l0.1,0.2c0.7,2.3,3.8,5.4,5.7,7l-5.6,3.5C0,23-0.1,23.4,0.1,23.7C0.2,23.9,0.4,24,0.6,24c0.1,0,0.2,0,0.3-0.1l13.7-8.4l9.4-5.8
			l6.6-4.1l1-0.6l6.1-3.8C38.1,1,38.2,0.6,38,0.3z M23.4,8.6c-1.2-1.5-3.2-2.4-5.3-2c-2.1,0.4-3.9,2-4.4,4.2
			c-0.3,1.3-0.2,2.6,0.3,3.7l-6.9,4.3c-1.8-1.4-4.3-4-5.3-5.9c-0.2-0.3-0.2-0.7,0-1C3.7,8,9.7,1.3,18.1,1.3c6.4,0,10.1,2.1,11.6,3.3
			L23.4,8.6z"/>
	</g>
	<g>
		<path class="st0" d="M38.2,12L38,12.3C35,19,27,24,19.5,24c-6.9,0-9.7-2.1-9.8-2.2c-0.3-0.2-0.3-0.6-0.1-0.9
			c0.2-0.3,0.6-0.3,0.9-0.1c0,0,2.7,2,9.1,2c5.8,0,13.6-3.8,17-10.2c0.2-0.3,0.2-0.7,0-1c-1.4-2.3-3.3-4.3-3.3-4.3
			c-0.2-0.3-0.2-0.7,0-0.9c0.3-0.2,0.6-0.2,0.9,0c0.1,0.1,2.4,2.6,4,5.4L38.2,12z"/>
	</g>
	<g>
		<path class="st0" d="M24.6,12.1c0,3.1-2.5,5.6-5.6,5.6c-0.9,0-1.7-0.2-2.4-0.5L24.6,12.1z"/>
	</g>
</g>
</svg>
