<?xml version="1.0" encoding="utf-8"?>
<!-- Generator: Adobe Illustrator 24.1.2, SVG Export Plug-In . SVG Version: 6.00 Build 0)  -->
<svg version="1.1" id="Layer_1" xmlns:serif="http://www.serif.com/"
	 xmlns="http://www.w3.org/2000/svg" xmlns:xlink="http://www.w3.org/1999/xlink" x="0px" y="0px" viewBox="0 0 81.2 96.6"
	 style="enable-background:new 0 0 81.2 96.6;" xml:space="preserve">
<style type="text/css">
	.st0{fill-rule:evenodd;clip-rule:evenodd;}
</style>
<g>
	<path class="st0" d="M64.3,6.5c-6.1-2.8-12.8-4.8-19.8-5.8c-6.3-0.9-12.6-0.9-18.7-0.2c-1.7,0.2-2.9,1.8-2.7,3.5
		c0.2,1.7,1.8,2.9,3.5,2.7c5.5-0.7,11.3-0.6,17,0.2c6.4,0.9,12.5,2.7,18.1,5.3c1.6,0.7,3.4,0,4.1-1.5C66.6,9.1,65.9,7.3,64.3,6.5
		L64.3,6.5z"/>
	<path class="st0" d="M77.3,26.5C68.3,17.9,56.5,11.9,43.2,10c-11.5-1.6-22.6,0-32.6,4.1c-1.6,0.7-2.4,2.5-1.7,4.1
		c0.7,1.6,2.5,2.4,4.1,1.7c9-3.7,19-5.1,29.4-3.7c12,1.7,22.6,7.1,30.7,14.9c1.3,1.2,3.2,1.1,4.4-0.1C78.6,29.7,78.6,27.7,77.3,26.5
		L77.3,26.5z"/>
	<path class="st0" d="M80.8,46.1c-7.8-14-21.8-24.4-38.9-26.8c-14.1-2-27.6,1.7-38.4,9.4c-1.4,1-1.7,3-0.7,4.4s3,1.7,4.4,0.7
		c9.5-6.8,21.4-10,33.8-8.3C56,27.6,68.4,36.8,75.3,49.2c0.8,1.5,2.7,2.1,4.3,1.2C81.1,49.5,81.6,47.6,80.8,46.1L80.8,46.1z"/>
	<path class="st0" d="M77.7,66.1c-2.5-18.9-17.4-34.7-37.2-37.5c-15.6-2.2-30.4,4.1-39.8,15.3c-1.1,1.3-0.9,3.3,0.4,4.4
		c1.3,1.1,3.3,0.9,4.4-0.4c8.1-9.6,20.8-15,34.1-13.1c17,2.4,29.7,15.9,31.9,32.2c0.2,1.7,1.8,2.9,3.5,2.7
		C76.7,69.4,77.9,67.8,77.7,66.1L77.7,66.1z"/>
	<path class="st0" d="M66.7,84.7c1.5-4.5,1.7-7.3,1.7-8.2c2.6-18.7-10.5-36-29.2-38.7C22.7,35.5,7.4,45.2,2,60.3
		c-0.3,0.8-0.5,1.5-0.7,2.3c-0.5,1.7,0.5,3.4,2.2,3.9c1.7,0.5,3.4-0.5,3.9-2.2c0.2-0.6,0.4-1.3,0.6-1.9c4.4-12.3,17-20.3,30.4-18.3
		c15.4,2.2,26.1,16.5,23.9,31.8c0,0.1,0,0.3,0,0.5c0,0,0,2.3-1.4,6.4c-0.5,1.6,0.4,3.4,2,3.9C64.4,87.2,66.1,86.3,66.7,84.7
		L66.7,84.7z"/>
	<path class="st0" d="M51.6,94.2c6.8-10.8,7.5-17.7,7.5-19c1.9-13.6-7.6-26.2-21.2-28.1c-12.7-1.8-24.6,6.3-27.7,18.5
		c-0.5,0.8-1.6,2.5-3.4,4.9c-1.1,1.4-0.8,3.3,0.6,4.4c1.4,1.1,3.3,0.8,4.4-0.6c2.6-3.3,3.8-5.6,4.1-6.1c0.1-0.3,0.3-0.5,0.3-0.8
		c2.2-9.3,11.2-15.6,20.9-14.2c10.2,1.5,17.4,11,15.9,21.2c0,0.1,0,0.2,0,0.4c0,0-0.3,5.9-6.6,16c-0.9,1.5-0.5,3.4,1,4.3
		C48.7,96.1,50.6,95.7,51.6,94.2z"/>
	<path class="st0" d="M49.8,74C51,65.5,45,57.6,36.5,56.4c-8.2-1.2-15.8,4.2-17.5,12.2c-0.4,1-2.2,4.7-6.8,10.2
		c-1.1,1.3-0.9,3.3,0.4,4.4c1.3,1.1,3.3,0.9,4.4-0.4C23,75.6,24.8,71,25,70.6c0.1-0.2,0.1-0.4,0.2-0.6c0.9-4.9,5.6-8.2,10.5-7.5
		c5.1,0.7,8.7,5.5,8,10.6c0,0.1,0,0.2,0,0.2c0,0-0.6,6.8-9.3,18.2c-1.1,1.4-0.8,3.3,0.6,4.4s3.3,0.8,4.4-0.6
		C48.7,83,49.7,75,49.8,74L49.8,74z"/>
	<path class="st0" d="M31.2,71.4c0,0-1,5.7-9.3,15.6c-1.1,1.3-0.9,3.3,0.4,4.4c1.3,1.1,3.3,0.9,4.4-0.4
		c9.9-11.7,10.7-18.7,10.7-18.7c0.2-1.7-0.9-3.3-2.6-3.5C33.1,68.5,31.5,69.7,31.2,71.4L31.2,71.4z"/>
</g>
</svg>
